Coordinates
version=1
nRows=11
nColumns=36
inDegrees=yes

Units are S.I. units (second, meters, Newtons, ...)
If the header above contains a line with 'inDegrees', this indicates whether rotational values are in degrees (yes) or radians (no).

endheader
time	pelvis_tilt	pelvis_list	pelvis_rotation	pelvis_tx	pelvis_ty	pelvis_tz	hip_flexion_r	hip_adduction_r	hip_rotation_r	knee_angle_r	knee_angle_r_beta	ankle_angle_r	subtalar_angle_r	mtp_angle_r	hip_flexion_l	hip_adduction_l	hip_rotation_l	knee_angle_l	knee_angle_l_beta	ankle_angle_l	subtalar_angle_l	mtp_angle_l	lumbar_extension	lumbar_bending	lumbar_rotation	arm_flex_r	arm_add_r	arm_rot_r	elbow_flex_r	pro_sup_r	arm_flex_l	arm_add_l	arm_rot_l	elbow_flex_l	pro_sup_l
      3.48333330	     -9.89798856	     -2.16636950	    -11.28972189	      0.31537426	      0.93306414	     -0.03896077	     10.16536243	     -0.69364073	     -0.36576085	      2.62783254	      0.04586433	      1.56916635	     -8.35947759	     -7.49999987	      7.20302711	    -12.14812958	     -4.98087603	      5.98123837	      0.10439230	      5.08540067	     -6.91779170	     -7.49999987	      0.92227482	      4.38763053	     -0.06299035	     76.54703371	      3.12008331	     58.66056416	    107.79744437	     80.23527264	     72.54916257	     -2.64758835	     63.49128733	    113.53021598	     77.29604009
      3.50000000	     -9.89912828	     -2.11461225	    -11.29793814	      0.31494527	      0.93346346	     -0.03928286	      9.93289344	     -0.73277574	      0.09103260	      2.28646922	      0.03990642	      1.59478082	     -8.78458144	     -7.49999987	      7.01168640	    -12.02276618	     -4.68786760	      5.72808171	      0.09997389	      5.03941286	     -7.27638937	     -7.49999987	      1.28452205	      4.29971796	      0.25423763	     75.84525939	      2.49808594	     58.87463374	    109.31579046	     80.55806648	     71.47352429	     -2.82211802	     63.66537166	    115.16847333	     77.14211108
      3.51666670	     -9.89773235	     -2.08000085	    -11.27334750	      0.31520895	      0.93351910	     -0.03892734	      9.74051456	     -0.74170662	      0.42768811	      2.00555142	      0.03500348	      1.67514407	     -9.06465089	     -7.49999987	      6.88594129	    -11.93555968	     -4.45289447	      5.52581989	      0.09644375	      4.99080354	     -7.48429003	     -7.49999987	      1.64586138	      4.15933487	      0.30867719	     75.26198704	      2.42530336	     59.14374438	    108.70320650	     79.13440133	     70.98268789	     -2.82430668	     64.07572016	    115.54458899	     75.33990744
      3.53333330	     -9.97100830	     -2.01617799	    -11.23558782	      0.31488001	      0.93370943	     -0.03930253	      9.70247761	     -0.78556212	      0.50023443	      1.79210857	      0.03127820	      1.87121724	     -8.85264502	     -7.49999987	      6.89112509	    -11.83956816	     -4.24176054	      5.39230249	      0.09411343	      4.89588151	     -7.74680902	     -7.49999987	      1.93236369	      3.97867376	      0.38527366	     75.15328993	      2.13692354	     59.82539442	    107.50426669	     77.61873794	     70.63614569	     -2.89229348	     63.69064336	    115.00496275	     73.71263000
      3.55000000	     -9.94424720	     -1.97174986	    -11.23436758	      0.31510780	      0.93361830	     -0.03892750	      9.56842931	     -0.81384625	      0.83889880	      1.60964889	      0.02809367	      1.88169630	     -9.11926002	     -7.49999987	      6.80928449	    -11.76931167	     -4.18387688	      5.28763266	      0.09228660	      4.82720204	     -7.90433386	     -7.49999987	      1.75615866	      3.83183483	     -0.20363646	     75.83016510	      2.58033138	     60.00616223	    104.66820067	     77.20800602	     71.66414736	     -2.98354729	     64.12066203	    114.64297818	     72.90952604
      3.56666670	    -10.01402640	     -1.92739864	    -11.21000449	      0.31479108	      0.93371844	     -0.03917871	      9.58836303	     -0.82083709	      1.09438782	      1.46964009	      0.02565006	      1.91517477	     -9.24754080	     -7.49999987	      6.87097110	    -11.71482628	     -4.16203053	      5.21957131	      0.09109870	      4.77874517	     -8.03462467	     -7.49999987	      1.80864682	      3.65645633	     -0.31799648	     76.43267868	      2.87987111	     60.41969268	    103.63054052	     75.78795702	     72.00607552	     -2.98671488	     64.05316332	    114.36329123	     71.45068450
      3.58333330	    -10.05637685	     -1.89915482	    -11.16184541	      0.31537152	      0.93653535	     -0.03918429	      9.63561522	     -0.83140240	      1.28663460	      1.43831125	      0.02510327	      1.92925994	     -9.35349531	     -7.49999987	      6.90296004	    -11.67555332	     -4.08659611	      5.16403223	      0.09012937	      4.55822740	     -8.36708109	     -7.49999987	      1.87304745	      3.60606305	     -0.50803861	     76.46400845	      3.12706277	     60.77668943	    102.44922049	     86.52378810	     71.83477046	     -3.10438698	     64.28804531	    113.99174095	     76.06958063
      3.60000000	    -10.05681122	     -1.86854340	    -11.16440443	      0.31512262	      0.93669933	     -0.03947018	      9.66047343	     -0.84280749	      1.33666536	      1.40937954	      0.02459831	      2.00053005	     -9.18141183	     -7.49999987	      6.91500111	    -11.65301712	     -4.18329505	      5.15505571	      0.08997270	      4.45047807	     -8.32218764	     -7.49999987	      1.82734780	      3.46966271	     -1.08548238	     76.97646829	      4.15839383	     61.82343226	    102.33412759	     82.73298411	     72.40829117	     -2.93692449	     64.81658199	    113.57278249	     73.69196157
      3.61666670	    -10.05626197	     -1.86639202	    -11.12122090	      0.31540678	      0.93648514	     -0.03913866	      9.68389510	     -0.83050000	      1.45305923	      1.40319832	      0.02449043	      1.97385544	     -9.25018064	     -7.49999987	      6.96265452	    -11.64793603	     -4.07778916	      5.14172999	      0.08974012	      4.22371907	     -8.62015006	     -7.49999987	      1.65912817	      3.40800986	     -1.72990798	     77.76061932	      5.29286618	     63.70787377	    102.43406533	     80.66554737	     73.14079142	     -2.79886156	     65.71224585	    113.30633601	     72.42632202
      3.63333330	    -10.13105190	     -1.86541039	    -11.05515985	      0.31523015	      0.93642568	     -0.03945955	      9.79180448	     -0.81055682	      1.55495335	      1.40995412	      0.02460834	      1.96870218	     -9.27392117	     -7.49999987	      7.10776210	    -11.67350538	     -4.06135718	      5.12648175	      0.08947399	      3.98976419	     -8.80224341	     -7.49999987	      1.57552634	      3.38726669	     -2.09519475	     78.21654172	      5.76254107	     64.06847187	    102.04696825	     86.17706895	     73.49632686	     -2.95782383	     65.50164934	    112.85765476	     76.26737431
      3.65000000	    -10.15656286	     -1.88918901	    -10.98564413	      0.31564271	      0.93623156	     -0.03924703	      9.83285178	     -0.78441059	      1.53357588	      1.41838012	      0.02475540	      2.07636822	     -9.01745814	     -7.49999987	      7.18554903	    -11.70772924	     -4.06505872	      5.10345017	      0.08907201	      3.79916599	     -8.91701469	     -7.49999987	      1.53644723	      3.38762156	     -1.86961775	     78.45439713	      5.21962134	     64.59577566	    102.56301581	     83.22797168	     73.52904990	     -2.86245266	     66.26153223	    113.18902060	     74.53901603
